<?xml version="1.0" encoding="UTF-8"?>
<!DOCTYPE svg PUBLIC "-//W3C//DTD SVG 1.1//EN" "http://www.w3.org/Graphics/SVG/1.1/DTD/svg11.dtd">
<svg xmlns="http://www.w3.org/2000/svg" version="1.1" width="512px" height="512px" style="shape-rendering:geometricPrecision; text-rendering:geometricPrecision; image-rendering:optimizeQuality; fill-rule:evenodd; clip-rule:evenodd" xmlns:xlink="http://www.w3.org/1999/xlink">
<g><path style="opacity:0.982" fill="#000000" d="M 368.5,7.5 C 418.725,3.53322 457.891,22.1999 486,63.5C 504.743,95.7006 508.743,129.701 498,165.5C 484.979,202.354 460.146,227.354 423.5,240.5C 423.667,322.501 423.5,404.501 423,486.5C 420.167,494.667 414.667,500.167 406.5,503C 278.111,503.995 149.778,503.661 21.5,502C 14.8513,498.686 10.3513,493.519 8,486.5C 7.33333,385.833 7.33333,285.167 8,184.5C 10.8333,176.333 16.3333,170.833 24.5,168C 106.166,167.5 187.833,167.333 269.5,167.5C 268.326,162.47 266.992,157.47 265.5,152.5C 255.183,151.668 244.849,151.168 234.5,151C 229.5,146 224.5,141 219.5,136C 201.824,135.167 184.157,135.334 166.5,136.5C 157.887,151.869 145.554,155.703 129.5,148C 118.757,138.209 116.59,126.709 123,113.5C 132.791,102.757 144.291,100.59 157.5,107C 161.454,110.117 164.454,113.95 166.5,118.5C 187.159,119.333 207.825,119.833 228.5,120C 233.5,125 238.5,130 243.5,135C 250.158,135.5 256.825,135.666 263.5,135.5C 262.24,119.066 264.24,103.066 269.5,87.5C 247.164,87.6666 224.831,87.5 202.5,87C 197.5,82 192.5,77 187.5,72C 169.824,71.167 152.157,71.3337 134.5,72.5C 125.887,87.8692 113.554,91.7026 97.5,84C 87.6339,75.8657 84.8006,65.699 89,53.5C 97.8425,38.9547 110.009,35.4547 125.5,43C 129.454,46.1169 132.454,49.9503 134.5,54.5C 155.159,55.3331 175.825,55.8331 196.5,56C 201.5,61 206.5,66 211.5,71C 233.508,71.8331 255.508,71.6664 277.5,70.5C 297.718,34.8908 328.051,13.8908 368.5,7.5 Z M 404.5,41.5 C 390.5,38.8333 376.5,38.8333 362.5,41.5C 376.5,18.8333 390.5,18.8333 404.5,41.5 Z M 339.5,50.5 C 336.953,51.9336 334.619,53.6002 332.5,55.5C 325.159,55.6663 317.826,55.4997 310.5,55C 321.171,43.4073 333.838,35.574 348.5,31.5C 344.686,37.4611 341.686,43.7944 339.5,50.5 Z M 434.5,55.5 C 432.381,53.6002 430.047,51.9336 427.5,50.5C 425.314,43.7944 422.314,37.4611 418.5,31.5C 433.162,35.574 445.829,43.4073 456.5,55C 449.174,55.4997 441.841,55.6663 434.5,55.5 Z M 108.5,56.5 C 117.85,56.3654 120.517,60.532 116.5,69C 107.956,72.3224 104.123,69.4891 105,60.5C 105.69,58.6498 106.856,57.3164 108.5,56.5 Z M 314.5,71.5 C 303.471,85.5753 297.138,101.575 295.5,119.5C 290.5,119.5 285.5,119.5 280.5,119.5C 281.968,102.595 287.135,86.9287 296,72.5C 302.076,71.5236 308.242,71.1903 314.5,71.5 Z M 452.5,71.5 C 458.758,71.1903 464.924,71.5236 471,72.5C 479.865,86.9287 485.032,102.595 486.5,119.5C 481.5,119.5 476.5,119.5 471.5,119.5C 469.862,101.575 463.529,85.5753 452.5,71.5 Z M 140.5,120.5 C 149.85,120.365 152.517,124.532 148.5,133C 139.956,136.322 136.123,133.489 137,124.5C 137.69,122.65 138.856,121.316 140.5,120.5 Z M 295.5,135.5 C 296.326,146.809 299.326,157.476 304.5,167.5C 298.907,167.807 293.407,167.473 288,166.5C 283.783,156.582 281.283,146.248 280.5,135.5C 285.5,135.5 290.5,135.5 295.5,135.5 Z M 471.5,135.5 C 476.5,135.5 481.5,135.5 486.5,135.5C 485.033,152.4 479.867,168.066 471,182.5C 464.924,183.476 458.758,183.81 452.5,183.5C 463.528,169.427 469.861,153.427 471.5,135.5 Z M 31.5,183.5 C 154.167,183.333 276.834,183.5 399.5,184C 404,184.5 406.5,187 407,191.5C 407.5,199.493 407.666,207.493 407.5,215.5C 320.499,215.333 233.499,215.5 146.5,216C 141.5,221 136.5,226 131.5,231C 95.5015,231.5 59.5015,231.667 23.5,231.5C 23.3334,218.163 23.5001,204.829 24,191.5C 24.6804,186.989 27.1804,184.323 31.5,183.5 Z M 434.5,199.5 C 441.841,199.334 449.174,199.5 456.5,200C 447.357,209.64 436.69,217.14 424.5,222.5C 423.505,217.208 423.172,211.875 423.5,206.5C 427.457,204.527 431.124,202.194 434.5,199.5 Z M 155.5,231.5 C 239.5,231.5 323.5,231.5 407.5,231.5C 407.667,314.167 407.5,396.834 407,479.5C 406.5,484 404,486.5 399.5,487C 276.833,487.667 154.167,487.667 31.5,487C 27,486.5 24.5,484 24,479.5C 23.5,402.167 23.3333,324.834 23.5,247.5C 62.5014,247.667 101.501,247.5 140.5,247C 145.703,241.965 150.703,236.798 155.5,231.5 Z M 279.5,263.5 C 311.5,263.5 343.5,263.5 375.5,263.5C 375.5,295.5 375.5,327.5 375.5,359.5C 343.5,359.5 311.5,359.5 279.5,359.5C 279.5,327.5 279.5,295.5 279.5,263.5 Z M 135.5,295.5 C 140.844,295.334 146.177,295.501 151.5,296C 163.343,297.847 168.176,304.68 166,316.5C 163.399,323.053 158.566,326.553 151.5,327C 146.177,327.499 140.844,327.666 135.5,327.5C 135.5,316.833 135.5,306.167 135.5,295.5 Z M 66.5,296.5 C 75.5867,294.959 82.0867,298.293 86,306.5C 87.3943,318.78 87.8943,331.114 87.5,343.5C 76.8333,343.5 66.1667,343.5 55.5,343.5C 55.1057,331.114 55.6057,318.78 57,306.5C 59.0223,301.98 62.189,298.647 66.5,296.5 Z M 55.5,439.5 C 71.5,439.5 87.5,439.5 103.5,439.5C 103.5,444.833 103.5,450.167 103.5,455.5C 87.5,455.5 71.5,455.5 55.5,455.5C 55.5,450.167 55.5,444.833 55.5,439.5 Z M 151.5,439.5 C 167.5,439.5 183.5,439.5 199.5,439.5C 199.5,444.833 199.5,450.167 199.5,455.5C 183.5,455.5 167.5,455.5 151.5,455.5C 151.5,450.167 151.5,444.833 151.5,439.5 Z"/></g>
<g><path style="opacity:0.989" fill="#eeba5d" d="M 404.5,41.5 C 407.582,45.3246 409.915,49.6579 411.5,54.5C 392.833,55.8333 374.167,55.8333 355.5,54.5C 357.085,49.6579 359.418,45.3246 362.5,41.5C 376.5,38.8333 390.5,38.8333 404.5,41.5 Z"/></g>
<g><path style="opacity:0.831" fill="#e9b959" d="M 339.5,50.5 C 339.166,54.648 336.833,56.3147 332.5,55.5C 334.619,53.6002 336.953,51.9336 339.5,50.5 Z"/></g>
<g><path style="opacity:0.834" fill="#e9b55a" d="M 427.5,50.5 C 430.047,51.9336 432.381,53.6002 434.5,55.5C 430.167,56.3147 427.834,54.648 427.5,50.5 Z"/></g>
<g><path style="opacity:0.991" fill="#eebb5d" d="M 314.5,71.5 C 320.833,71.5 327.167,71.5 333.5,71.5C 330.076,87.2978 328.076,103.298 327.5,119.5C 316.833,119.5 306.167,119.5 295.5,119.5C 297.138,101.575 303.471,85.5753 314.5,71.5 Z"/></g>
<g><path style="opacity:1" fill="#eeba5d" d="M 349.5,71.5 C 372.167,71.5 394.833,71.5 417.5,71.5C 421.09,87.2956 423.09,103.296 423.5,119.5C 396.833,119.5 370.167,119.5 343.5,119.5C 343.91,103.296 345.91,87.2956 349.5,71.5 Z"/></g>
<g><path style="opacity:0.992" fill="#eebb5d" d="M 452.5,71.5 C 463.529,85.5753 469.862,101.575 471.5,119.5C 460.833,119.5 450.167,119.5 439.5,119.5C 438.929,103.314 436.929,87.3143 433.5,71.5C 439.833,71.5 446.167,71.5 452.5,71.5 Z"/></g>
<g><path style="opacity:1" fill="#000000" d="M 359.5,87.5 C 364.833,87.5 370.167,87.5 375.5,87.5C 375.5,92.8333 375.5,98.1667 375.5,103.5C 370.167,103.5 364.833,103.5 359.5,103.5C 359.5,98.1667 359.5,92.8333 359.5,87.5 Z"/></g>
<g><path style="opacity:1" fill="#000000" d="M 391.5,87.5 C 396.833,87.5 402.167,87.5 407.5,87.5C 407.5,92.8333 407.5,98.1667 407.5,103.5C 402.167,103.5 396.833,103.5 391.5,103.5C 391.5,98.1667 391.5,92.8333 391.5,87.5 Z"/></g>
<g><path style="opacity:0.99" fill="#eeba5d" d="M 295.5,135.5 C 306.167,135.5 316.833,135.5 327.5,135.5C 328.5,146.164 329.5,156.831 330.5,167.5C 321.833,167.5 313.167,167.5 304.5,167.5C 299.326,157.476 296.326,146.809 295.5,135.5 Z"/></g>
<g><path style="opacity:1" fill="#eebb5d" d="M 343.5,135.5 C 369.833,135.5 396.167,135.5 422.5,135.5C 422.744,149.367 421.244,163.033 418,176.5C 413.915,171.707 408.749,168.874 402.5,168C 383.836,167.5 365.17,167.333 346.5,167.5C 345.335,156.848 344.335,146.182 343.5,135.5 Z"/></g>
<g><path style="opacity:0.993" fill="#edba5d" d="M 471.5,135.5 C 469.861,153.427 463.528,169.427 452.5,183.5C 446.167,183.5 439.833,183.5 433.5,183.5C 436.618,167.657 438.284,151.657 438.5,135.5C 449.5,135.5 460.5,135.5 471.5,135.5 Z"/></g>
<g><path style="opacity:1" fill="#000000" d="M 39.5,199.5 C 44.8333,199.5 50.1667,199.5 55.5,199.5C 55.5,204.833 55.5,210.167 55.5,215.5C 50.1667,215.5 44.8333,215.5 39.5,215.5C 39.5,210.167 39.5,204.833 39.5,199.5 Z"/></g>
<g><path style="opacity:1" fill="#000000" d="M 71.5,199.5 C 76.8333,199.5 82.1667,199.5 87.5,199.5C 87.5,204.833 87.5,210.167 87.5,215.5C 82.1667,215.5 76.8333,215.5 71.5,215.5C 71.5,210.167 71.5,204.833 71.5,199.5 Z"/></g>
<g><path style="opacity:1" fill="#000000" d="M 103.5,199.5 C 108.833,199.5 114.167,199.5 119.5,199.5C 119.5,204.833 119.5,210.167 119.5,215.5C 114.167,215.5 108.833,215.5 103.5,215.5C 103.5,210.167 103.5,204.833 103.5,199.5 Z"/></g>
<g><path style="opacity:0.907" fill="#efbc5d" d="M 434.5,199.5 C 431.124,202.194 427.457,204.527 423.5,206.5C 423.5,204.167 423.5,201.833 423.5,199.5C 427.167,199.5 430.833,199.5 434.5,199.5 Z"/></g>
<g><path style="opacity:1" fill="#000000" d="M 263.5,247.5 C 306.167,247.5 348.833,247.5 391.5,247.5C 391.5,290.167 391.5,332.833 391.5,375.5C 348.833,375.5 306.167,375.5 263.5,375.5C 263.5,332.833 263.5,290.167 263.5,247.5 Z M 279.5,263.5 C 279.5,295.5 279.5,327.5 279.5,359.5C 311.5,359.5 343.5,359.5 375.5,359.5C 375.5,327.5 375.5,295.5 375.5,263.5C 343.5,263.5 311.5,263.5 279.5,263.5 Z"/></g>
<g><path style="opacity:0.979" fill="#000000" d="M 63.5,279.5 C 83.4643,276.717 96.631,284.717 103,303.5C 103.5,332.831 103.667,362.165 103.5,391.5C 98.1667,391.5 92.8333,391.5 87.5,391.5C 87.5,380.833 87.5,370.167 87.5,359.5C 76.8333,359.5 66.1667,359.5 55.5,359.5C 55.5,370.167 55.5,380.833 55.5,391.5C 50.1667,391.5 44.8333,391.5 39.5,391.5C 39.3334,362.165 39.5,332.831 40,303.5C 43.349,290.985 51.1824,282.985 63.5,279.5 Z M 66.5,296.5 C 62.189,298.647 59.0223,301.98 57,306.5C 55.6057,318.78 55.1057,331.114 55.5,343.5C 66.1667,343.5 76.8333,343.5 87.5,343.5C 87.8943,331.114 87.3943,318.78 86,306.5C 82.0867,298.293 75.5867,294.959 66.5,296.5 Z"/></g>
<g><path style="opacity:0.975" fill="#000000" d="M 119.5,279.5 C 132.837,279.333 146.171,279.5 159.5,280C 178.438,286.355 186.272,299.522 183,319.5C 179.833,332 172,339.833 159.5,343C 151.507,343.5 143.507,343.666 135.5,343.5C 135.5,359.5 135.5,375.5 135.5,391.5C 130.167,391.5 124.833,391.5 119.5,391.5C 119.5,354.167 119.5,316.833 119.5,279.5 Z M 135.5,295.5 C 135.5,306.167 135.5,316.833 135.5,327.5C 140.844,327.666 146.177,327.499 151.5,327C 158.566,326.553 163.399,323.053 166,316.5C 168.176,304.68 163.343,297.847 151.5,296C 146.177,295.501 140.844,295.334 135.5,295.5 Z"/></g>
<g><path style="opacity:1" fill="#000000" d="M 191.5,279.5 C 207.5,279.5 223.5,279.5 239.5,279.5C 239.5,284.833 239.5,290.167 239.5,295.5C 234.167,295.5 228.833,295.5 223.5,295.5C 223.5,322.167 223.5,348.833 223.5,375.5C 228.833,375.5 234.167,375.5 239.5,375.5C 239.5,380.833 239.5,386.167 239.5,391.5C 223.5,391.5 207.5,391.5 191.5,391.5C 191.5,386.167 191.5,380.833 191.5,375.5C 196.833,375.5 202.167,375.5 207.5,375.5C 207.5,348.833 207.5,322.167 207.5,295.5C 202.167,295.5 196.833,295.5 191.5,295.5C 191.5,290.167 191.5,284.833 191.5,279.5 Z"/></g>
<g><path style="opacity:1" fill="#000000" d="M 391.5,407.5 C 348.833,407.5 306.167,407.5 263.5,407.5C 263.5,402.167 263.5,396.833 263.5,391.5C 306.167,391.5 348.833,391.5 391.5,391.5C 391.5,396.833 391.5,402.167 391.5,407.5 Z"/></g>
<g><path style="opacity:1" fill="#efbc5d" d="M 263.5,407.5 C 306.167,407.5 348.833,407.5 391.5,407.5C 391.5,412.833 391.5,418.167 391.5,423.5C 386.167,423.5 380.833,423.5 375.5,423.5C 375.5,428.833 375.5,434.167 375.5,439.5C 380.833,439.5 386.167,439.5 391.5,439.5C 391.5,444.833 391.5,450.167 391.5,455.5C 348.833,455.5 306.167,455.5 263.5,455.5C 263.5,450.167 263.5,444.833 263.5,439.5C 295.5,439.5 327.5,439.5 359.5,439.5C 359.5,434.167 359.5,428.833 359.5,423.5C 327.5,423.5 295.5,423.5 263.5,423.5C 263.5,418.167 263.5,412.833 263.5,407.5 Z"/></g>
<g><path style="opacity:0.981" fill="#000000" d="M 49.5,423.5 C 69.5028,423.333 89.5028,423.5 109.5,424C 114,425.833 117.167,429 119,433.5C 119.667,442.833 119.667,452.167 119,461.5C 117.167,466 114,469.167 109.5,471C 89.5,471.667 69.5,471.667 49.5,471C 45,469.167 41.8333,466 40,461.5C 39.3333,452.167 39.3333,442.833 40,433.5C 42.0223,428.98 45.189,425.647 49.5,423.5 Z M 55.5,439.5 C 55.5,444.833 55.5,450.167 55.5,455.5C 71.5,455.5 87.5,455.5 103.5,455.5C 103.5,450.167 103.5,444.833 103.5,439.5C 87.5,439.5 71.5,439.5 55.5,439.5 Z"/></g>
<g><path style="opacity:0.981" fill="#000000" d="M 145.5,423.5 C 165.503,423.333 185.503,423.5 205.5,424C 210,425.833 213.167,429 215,433.5C 215.667,442.833 215.667,452.167 215,461.5C 213.167,466 210,469.167 205.5,471C 185.5,471.667 165.5,471.667 145.5,471C 141,469.167 137.833,466 136,461.5C 135.333,452.167 135.333,442.833 136,433.5C 138.022,428.98 141.189,425.647 145.5,423.5 Z M 151.5,439.5 C 151.5,444.833 151.5,450.167 151.5,455.5C 167.5,455.5 183.5,455.5 199.5,455.5C 199.5,450.167 199.5,444.833 199.5,439.5C 183.5,439.5 167.5,439.5 151.5,439.5 Z"/></g>
<g><path style="opacity:1" fill="#000000" d="M 263.5,423.5 C 295.5,423.5 327.5,423.5 359.5,423.5C 359.5,428.833 359.5,434.167 359.5,439.5C 327.5,439.5 295.5,439.5 263.5,439.5C 263.5,434.167 263.5,428.833 263.5,423.5 Z"/></g>
<g><path style="opacity:1" fill="#000000" d="M 391.5,423.5 C 391.5,428.833 391.5,434.167 391.5,439.5C 386.167,439.5 380.833,439.5 375.5,439.5C 375.5,434.167 375.5,428.833 375.5,423.5C 380.833,423.5 386.167,423.5 391.5,423.5 Z"/></g>
<g><path style="opacity:1" fill="#000000" d="M 263.5,455.5 C 306.167,455.5 348.833,455.5 391.5,455.5C 391.5,460.833 391.5,466.167 391.5,471.5C 348.833,471.5 306.167,471.5 263.5,471.5C 263.5,466.167 263.5,460.833 263.5,455.5 Z"/></g>
</svg>
