<?xml version="1.0" standalone="no"?>
<!DOCTYPE svg PUBLIC "-//W3C//DTD SVG 20010904//EN"
 "http://www.w3.org/TR/2001/REC-SVG-20010904/DTD/svg10.dtd">
<svg version="1.0" xmlns="http://www.w3.org/2000/svg"
 width="512.000000pt" height="512.000000pt" viewBox="0 0 512.000000 512.000000"
 preserveAspectRatio="xMidYMid meet">

<g transform="translate(0.000000,512.000000) scale(0.100000,-0.100000)"
fill="#d3d0cb" stroke="none">
<path d="M4701 5085 c-185 -41 -394 -139 -569 -269 -64 -48 -376 -373 -1425
-1484 -897 -951 -1354 -1444 -1379 -1484 -40 -64 -98 -205 -98 -235 0 -12 22
4 68 49 73 74 119 98 183 98 135 0 229 -92 229 -224 0 -78 -33 -137 -115 -207
-35 -29 -62 -56 -59 -58 10 -10 182 56 254 98 81 46 100 63 1280 1141 129 118
566 517 970 886 484 442 754 696 790 742 114 147 203 320 256 497 37 125 40
289 7 352 -25 47 -71 84 -122 102 -46 15 -191 13 -270 -4z m-147 -372 c101
-32 206 -173 206 -274 0 -35 -47 -89 -77 -89 -32 0 -82 38 -89 67 -20 85 -87
143 -166 143 -21 0 -46 9 -62 21 -46 36 -29 125 28 149 26 12 95 4 160 -17z"/>
<path d="M1264 4637 c-39 -22 -228 -207 -212 -207 9 0 78 -7 154 -15 l137 -16
30 28 c16 16 35 40 43 55 16 32 18 91 4 119 -23 42 -110 63 -156 36z"/>
<path d="M2325 4471 c-16 -10 -63 -52 -103 -93 l-73 -75 148 -16 148 -15 33
31 c74 71 18 187 -90 187 -18 0 -46 -9 -63 -19z"/>
<path d="M241 4314 c-107 -28 -241 -122 -241 -168 0 -28 42 -65 102 -89 436
-175 1233 -596 1804 -953 191 -120 226 -132 262 -96 167 170 821 871 831 892
11 24 11 32 -4 63 -9 20 -28 40 -43 46 -43 17 -464 78 -767 111 -154 17 -618
71 -1032 120 -413 50 -775 90 -805 89 -29 0 -77 -7 -107 -15z"/>
<path d="M3935 3051 c-24 -10 -885 -799 -909 -832 -24 -35 -20 -59 21 -125
305 -497 498 -843 738 -1329 129 -261 250 -521 318 -687 19 -46 58 -72 92 -64
33 8 107 109 135 184 42 110 39 162 -54 947 -48 396 -105 880 -126 1075 -22
195 -55 454 -73 574 -32 207 -35 220 -61 243 -28 24 -47 27 -81 14z"/>
<path d="M4370 2519 c-14 -6 -34 -19 -45 -29 -20 -19 -20 -22 -6 -165 8 -80
18 -145 21 -145 4 0 44 38 88 84 89 92 103 127 82 191 -19 56 -85 87 -140 64z"/>
<path d="M273 2077 c-65 -66 -69 -95 -19 -141 57 -53 649 -445 682 -452 49
-10 88 33 109 121 9 39 35 116 57 173 45 112 44 134 -5 166 -23 16 -710 186
-749 186 -12 0 -44 -22 -75 -53z"/>
<path d="M1205 1338 c-136 -139 -252 -263 -258 -275 -12 -28 14 -63 47 -63 25
0 546 516 546 541 0 23 -33 49 -62 49 -21 0 -77 -52 -273 -252z"/>
<path d="M4526 1449 c-16 -4 -46 -24 -65 -43 l-37 -36 15 -150 c8 -82 17 -150
21 -150 3 0 49 44 102 98 69 70 99 108 106 135 26 93 -52 172 -142 146z"/>
<path d="M1755 1153 c-33 -14 -103 -36 -155 -49 -64 -16 -101 -31 -112 -45
-40 -47 -31 -64 224 -447 133 -200 250 -368 259 -373 51 -27 128 12 165 83 14
28 10 46 -96 416 -99 342 -115 390 -141 415 -36 34 -66 34 -144 0z"/>
</g>
</svg>
