<?xml version="1.0" standalone="no"?>
<!DOCTYPE svg PUBLIC "-//W3C//DTD SVG 20010904//EN"
 "http://www.w3.org/TR/2001/REC-SVG-20010904/DTD/svg10.dtd">
<svg version="1.0" xmlns="http://www.w3.org/2000/svg"
 width="512.000000pt" height="512.000000pt" viewBox="0 0 512.000000 512.000000"
 preserveAspectRatio="xMidYMid meet"  >

<g transform="translate(0.000000,512.000000) scale(0.100000,-0.100000)"
 fill="#d3d0cb" stroke="none">
<path d="M1535 5096 c-54 -25 -175 -144 -234 -230 -47 -68 -97 -180 -116 -261
-24 -102 -22 -278 4 -379 42 -160 94 -242 274 -434 63 -67 125 -142 137 -167
12 -25 25 -77 29 -122 12 -121 51 -181 141 -222 116 -53 255 3 304 121 23 53
20 185 -4 283 -40 158 -95 244 -274 434 -143 151 -161 185 -161 306 0 110 13
138 116 251 39 43 80 97 90 119 26 56 24 129 -5 190 -28 60 -56 87 -116 114
-60 27 -123 26 -185 -3z"/>
<path d="M2639 5107 c-47 -18 -70 -36 -151 -122 -131 -140 -195 -260 -223
-420 -18 -107 -19 -186 0 -287 29 -164 95 -283 245 -442 176 -186 193 -213
205 -331 9 -85 26 -129 68 -174 69 -72 170 -91 262 -47 61 28 87 56 116 121
19 43 21 60 15 138 -7 105 -27 188 -66 273 -41 90 -72 132 -218 292 -72 79
-138 160 -148 180 -12 24 -20 67 -22 125 -4 78 -1 93 22 140 14 29 56 86 94
127 38 41 76 89 84 105 56 110 8 253 -104 311 -43 22 -134 28 -179 11z"/>
<path d="M525 2771 c-51 -23 -111 -89 -124 -138 -14 -51 -15 -939 0 -1053 48
-393 219 -752 492 -1037 l69 -71 -274 -4 c-253 -3 -276 -5 -318 -24 -85 -40
-133 -116 -133 -214 0 -65 21 -114 70 -163 71 -72 -66 -67 1872 -67 l1746 0
50 24 c60 28 87 56 114 116 53 117 2 248 -119 304 -42 19 -66 21 -318 24
l-274 4 84 86 c132 136 212 249 304 427 l51 100 184 6 c203 6 264 18 387 75
129 59 269 176 345 286 48 70 105 197 128 283 29 112 29 298 0 410 -76 287
-286 511 -571 608 l-95 32 -1815 2 c-1741 3 -1817 2 -1855 -16z m3569 -451
c125 -20 235 -104 290 -220 28 -58 31 -75 31 -160 0 -85 -3 -102 -31 -160 -70
-149 -208 -230 -392 -230 -54 0 -54 0 -48 28 4 15 9 190 13 390 l6 362 36 0
c20 0 63 -4 95 -10z"/>
</g>
</svg>
