<?xml version="1.0" encoding="UTF-8"?>
<!DOCTYPE svg PUBLIC "-//W3C//DTD SVG 1.1//EN" "http://www.w3.org/Graphics/SVG/1.1/DTD/svg11.dtd">
<svg xmlns="http://www.w3.org/2000/svg" version="1.1" width="512px" height="512px" style="shape-rendering:geometricPrecision; text-rendering:geometricPrecision; image-rendering:optimizeQuality; fill-rule:evenodd; clip-rule:evenodd" xmlns:xlink="http://www.w3.org/1999/xlink">
<g><path style="opacity:0.947" fill="#000000" d="M 50.5,-0.5 C 198.5,-0.5 346.5,-0.5 494.5,-0.5C 502.5,2.83333 508.167,8.5 511.5,16.5C 511.5,161.5 511.5,306.5 511.5,451.5C 508.932,456.564 504.932,460.064 499.5,462C 407.834,462.5 316.167,462.667 224.5,462.5C 227.345,459.488 230.012,456.321 232.5,453C 230.921,450.263 229.588,447.429 228.5,444.5C 317.167,444.5 405.833,444.5 494.5,444.5C 494.5,406.5 494.5,368.5 494.5,330.5C 405.833,330.5 317.167,330.5 228.5,330.5C 229.807,327.886 231.14,325.22 232.5,322.5C 229.406,319.417 226.739,316.084 224.5,312.5C 270.5,312.5 316.5,312.5 362.5,312.5C 362.766,308.395 362.266,304.395 361,300.5C 360.097,299.299 358.931,298.465 357.5,298C 337.124,297.94 316.791,297.273 296.5,296C 279.816,287.256 275.649,274.423 284,257.5C 287.315,253.182 291.481,250.015 296.5,248C 316.791,246.727 337.124,246.06 357.5,246C 358.931,245.535 360.097,244.701 361,243.5C 362.266,239.605 362.766,235.605 362.5,231.5C 329.5,231.5 296.5,231.5 263.5,231.5C 263.5,192.5 263.5,153.5 263.5,114.5C 335.167,114.5 406.833,114.5 478.5,114.5C 478.5,153.5 478.5,192.5 478.5,231.5C 445.5,231.5 412.5,231.5 379.5,231.5C 381.874,248.621 374.874,259.454 358.5,264C 339.833,264.333 321.167,264.667 302.5,265C 295.833,269.667 295.833,274.333 302.5,279C 321.167,279.333 339.833,279.667 358.5,280C 374.874,284.546 381.874,295.379 379.5,312.5C 417.833,312.5 456.167,312.5 494.5,312.5C 494.667,215.499 494.5,118.499 494,21.5C 492.833,19.6667 491.333,18.1667 489.5,17C 344.5,16.3333 199.5,16.3333 54.5,17C 52.2739,18.2273 50.7739,20.0607 50,22.5C 49.5,109.833 49.3333,197.166 49.5,284.5C 44.5588,291.11 38.8922,297.11 32.5,302.5C 32.3333,207.499 32.5,112.499 33,17.5C 35.6834,8.318 41.5167,2.318 50.5,-0.5 Z M 88.5,49.5 C 97.3028,50.4828 99.8028,54.8162 96,62.5C 89.5317,66.7298 85.0317,65.0632 82.5,57.5C 83.0752,53.6508 85.0752,50.9842 88.5,49.5 Z M 154.5,49.5 C 163.625,50.763 165.958,55.263 161.5,63C 155.087,66.5763 150.753,64.7429 148.5,57.5C 149.075,53.6508 151.075,50.9842 154.5,49.5 Z M 220.5,49.5 C 228.345,50.1552 231.179,54.1552 229,61.5C 222.218,67.1321 217.385,65.6321 214.5,57C 215.622,53.7203 217.622,51.2203 220.5,49.5 Z M 286.5,49.5 C 342.834,49.3333 399.168,49.5 455.5,50C 463.701,55.5376 463.368,60.5376 454.5,65C 399.167,65.6667 343.833,65.6667 288.5,65C 281.83,63.6322 279.663,59.7989 282,53.5C 283.397,51.9297 284.897,50.5964 286.5,49.5 Z M 82.5,115.5 C 131.833,115.5 181.167,115.5 230.5,115.5C 230.5,153.833 230.5,192.167 230.5,230.5C 181.167,230.5 131.833,230.5 82.5,230.5C 82.5,192.167 82.5,153.833 82.5,115.5 Z M 280.5,132.5 C 340.833,132.5 401.167,132.5 461.5,132.5C 461.5,159.5 461.5,186.5 461.5,213.5C 401.167,213.5 340.833,213.5 280.5,213.5C 280.5,186.5 280.5,159.5 280.5,132.5 Z"/></g>
<g><path style="opacity:0.934" fill="#000000" d="M 83.5,32.5 C 99.4417,30.0461 109.942,36.3795 115,51.5C 116.97,70.1928 108.637,80.5262 90,82.5C 71.3932,79.8831 63.3932,69.2165 66,50.5C 68.6834,41.318 74.5167,35.318 83.5,32.5 Z M 88.5,49.5 C 85.0752,50.9842 83.0752,53.6508 82.5,57.5C 85.0317,65.0632 89.5317,66.7298 96,62.5C 99.8028,54.8162 97.3028,50.4828 88.5,49.5 Z"/></g>
<g><path style="opacity:0.935" fill="#000000" d="M 149.5,32.5 C 171.8,30.9676 182.3,41.3009 181,63.5C 175.924,77.9582 165.757,84.1249 150.5,82C 132.037,74.6223 126.87,61.7889 135,43.5C 138.857,38.4678 143.69,34.8011 149.5,32.5 Z M 154.5,49.5 C 151.075,50.9842 149.075,53.6508 148.5,57.5C 150.753,64.7429 155.087,66.5763 161.5,63C 165.958,55.263 163.625,50.763 154.5,49.5 Z"/></g>
<g><path style="opacity:0.935" fill="#000000" d="M 215.5,32.5 C 238.102,30.6948 248.602,41.0281 247,63.5C 241.924,77.9582 231.757,84.1249 216.5,82C 201.56,76.7129 195.393,66.2129 198,50.5C 200.683,41.318 206.517,35.318 215.5,32.5 Z M 220.5,49.5 C 217.622,51.2203 215.622,53.7203 214.5,57C 217.385,65.6321 222.218,67.1321 229,61.5C 231.179,54.1552 228.345,50.1552 220.5,49.5 Z"/></g>
<g><path style="opacity:0.964" fill="#000000" d="M 281.5,32.5 C 341.168,32.3333 400.834,32.5 460.5,33C 475.009,38.5064 480.842,49.0064 478,64.5C 474.74,73.4275 468.573,79.2608 459.5,82C 400.5,82.6667 341.5,82.6667 282.5,82C 267.734,76.6444 261.568,66.1444 264,50.5C 266.683,41.318 272.517,35.318 281.5,32.5 Z M 286.5,49.5 C 284.897,50.5964 283.397,51.9297 282,53.5C 279.663,59.7989 281.83,63.6322 288.5,65C 343.833,65.6667 399.167,65.6667 454.5,65C 463.368,60.5376 463.701,55.5376 455.5,50C 399.168,49.5 342.834,49.3333 286.5,49.5 Z"/></g>
<g><path style="opacity:0.973" fill="#000000" d="M 65.5,98.5 C 126.167,98.5 186.833,98.5 247.5,98.5C 247.5,148.167 247.5,197.833 247.5,247.5C 186.833,247.5 126.167,247.5 65.5,247.5C 65.5,197.833 65.5,148.167 65.5,98.5 Z M 82.5,115.5 C 82.5,153.833 82.5,192.167 82.5,230.5C 131.833,230.5 181.167,230.5 230.5,230.5C 230.5,192.167 230.5,153.833 230.5,115.5C 181.167,115.5 131.833,115.5 82.5,115.5 Z"/></g>
<g><path style="opacity:0.991" fill="#f0bc5d" d="M 130.5,131.5 C 134.846,131.334 139.179,131.501 143.5,132C 158.991,139.488 174.325,147.155 189.5,155C 201.393,166.985 201.393,178.985 189.5,191C 173.956,198.939 158.289,206.605 142.5,214C 128.095,216.243 118.928,210.41 115,196.5C 114.333,180.5 114.333,164.5 115,148.5C 117.256,140.081 122.423,134.415 130.5,131.5 Z"/></g>
<g><path style="opacity:0.967" fill="#000000" d="M 296.5,164.5 C 324.167,164.5 351.833,164.5 379.5,164.5C 379.5,170.167 379.5,175.833 379.5,181.5C 351.833,181.5 324.167,181.5 296.5,181.5C 296.5,175.833 296.5,170.167 296.5,164.5 Z"/></g>
<g><path style="opacity:0.873" fill="#000000" d="M 400.5,164.5 C 410.156,163.657 413.989,167.99 412,177.5C 407.281,182.366 402.281,182.699 397,178.5C 394.267,172.722 395.434,168.056 400.5,164.5 Z"/></g>
<g><path style="opacity:0.873" fill="#000000" d="M 433.5,164.5 C 443.156,163.657 446.989,167.99 445,177.5C 440.281,182.366 435.281,182.699 430,178.5C 427.267,172.722 428.434,168.056 433.5,164.5 Z"/></g>
<g><path style="opacity:0.996" fill="#efbb5d" d="M 224.5,312.5 C 226.739,316.084 229.406,319.417 232.5,322.5C 231.14,325.22 229.807,327.886 228.5,330.5C 226.194,334.483 223.861,338.483 221.5,342.5C 222.695,344.751 223.695,347.085 224.5,349.5C 232.025,351.965 239.692,353.965 247.5,355.5C 247.833,376.844 247.5,398.177 246.5,419.5C 239.166,421.5 231.833,423.5 224.5,425.5C 223.695,427.915 222.695,430.249 221.5,432.5C 223.845,436.528 226.178,440.528 228.5,444.5C 229.588,447.429 230.921,450.263 232.5,453C 230.012,456.321 227.345,459.488 224.5,462.5C 213.369,474.132 202.035,485.632 190.5,497C 187.983,497.257 185.65,496.59 183.5,495C 178.417,491.708 173.25,488.541 168,485.5C 165.765,487.202 163.265,488.202 160.5,488.5C 158.992,496.2 157.325,503.867 155.5,511.5C 134.167,511.5 112.833,511.5 91.5,511.5C 89.6712,504.185 87.8379,496.852 86,489.5C 83.4572,487.895 80.7905,486.562 78,485.5C 72.5846,489.125 67.0846,492.625 61.5,496C 59.9556,497.187 58.2889,497.52 56.5,497C 42.3333,482.833 28.1667,468.667 14,454.5C 13.4795,452.711 13.8129,451.044 15,449.5C 18.3751,443.915 21.8751,438.415 25.5,433C 24.4782,430.455 23.3116,427.955 22,425.5C 14.575,423.269 7.07504,421.269 -0.5,419.5C -0.5,398.167 -0.5,376.833 -0.5,355.5C 7.13319,353.675 14.7999,352.008 22.5,350.5C 22.7976,347.735 23.7976,345.235 25.5,343C 21.0838,336.247 17.0838,329.247 13.5,322C 19.3252,315.008 25.6586,308.508 32.5,302.5C 38.8922,297.11 44.5588,291.11 49.5,284.5C 52.1798,281.987 55.0132,279.654 58,277.5C 64.8993,281.367 71.7327,285.367 78.5,289.5C 80.3853,288.391 82.3853,287.557 84.5,287C 87.3603,279.743 89.6936,272.243 91.5,264.5C 112.823,263.5 134.156,263.167 155.5,263.5C 156.721,271.383 158.721,279.05 161.5,286.5C 163.915,287.305 166.249,288.305 168.5,289.5C 175.167,285.5 181.833,281.5 188.5,277.5C 200.521,289.188 212.521,300.855 224.5,312.5 Z"/></g>
<g><path style="opacity:0.876" fill="#000000" d="M 400.5,263.5 C 412.7,263.51 415.7,268.677 409.5,279C 399.426,282.553 394.926,279.053 396,268.5C 397.025,266.313 398.525,264.646 400.5,263.5 Z"/></g>
<g><path style="opacity:0.873" fill="#000000" d="M 433.5,263.5 C 443.212,262.709 447.045,267.042 445,276.5C 442.045,280.277 438.212,281.443 433.5,280C 428.931,277.459 427.431,273.625 429,268.5C 430.025,266.313 431.525,264.646 433.5,263.5 Z"/></g>
<g><path style="opacity:0.869" fill="#000000" d="M 466.5,263.5 C 476.156,262.657 479.989,266.99 478,276.5C 475.045,280.277 471.212,281.443 466.5,280C 461.931,277.459 460.431,273.625 462,268.5C 463.025,266.313 464.525,264.646 466.5,263.5 Z"/></g>
<g><path style="opacity:1" fill="#070502" d="M 131.5,330.5 C 147.833,330.5 164.167,330.5 180.5,330.5C 180.5,368.833 180.5,407.167 180.5,445.5C 142.167,445.5 103.833,445.5 65.5,445.5C 65.5,428.833 65.5,412.167 65.5,395.5C 76.5,395.5 87.5,395.5 98.5,395.5C 98.5,384.5 98.5,373.5 98.5,362.5C 109.5,362.5 120.5,362.5 131.5,362.5C 131.5,351.833 131.5,341.167 131.5,330.5 Z"/></g>
<g><path style="opacity:1" fill="#4d3c1e" d="M 131.5,330.5 C 147.992,329.503 164.658,329.17 181.5,329.5C 181.832,368.337 181.499,407.004 180.5,445.5C 180.5,407.167 180.5,368.833 180.5,330.5C 164.167,330.5 147.833,330.5 131.5,330.5 Z"/></g>
<g><path style="opacity:0.892" fill="#000000" d="M 263.5,345.5 C 269.167,345.5 274.833,345.5 280.5,345.5C 280.5,351.5 280.5,357.5 280.5,363.5C 274.833,363.5 269.167,363.5 263.5,363.5C 263.5,357.5 263.5,351.5 263.5,345.5 Z"/></g>
<g><path style="opacity:0.892" fill="#000000" d="M 296.5,345.5 C 302.167,345.5 307.833,345.5 313.5,345.5C 313.5,351.5 313.5,357.5 313.5,363.5C 307.833,363.5 302.167,363.5 296.5,363.5C 296.5,357.5 296.5,351.5 296.5,345.5 Z"/></g>
<g><path style="opacity:0.892" fill="#000000" d="M 329.5,345.5 C 335.167,345.5 340.833,345.5 346.5,345.5C 346.5,351.5 346.5,357.5 346.5,363.5C 340.833,363.5 335.167,363.5 329.5,363.5C 329.5,357.5 329.5,351.5 329.5,345.5 Z"/></g>
<g><path style="opacity:0.892" fill="#000000" d="M 362.5,345.5 C 368.167,345.5 373.833,345.5 379.5,345.5C 379.5,351.5 379.5,357.5 379.5,363.5C 373.833,363.5 368.167,363.5 362.5,363.5C 362.5,357.5 362.5,351.5 362.5,345.5 Z"/></g>
<g><path style="opacity:0.892" fill="#000000" d="M 395.5,345.5 C 401.167,345.5 406.833,345.5 412.5,345.5C 412.5,351.5 412.5,357.5 412.5,363.5C 406.833,363.5 401.167,363.5 395.5,363.5C 395.5,357.5 395.5,351.5 395.5,345.5 Z"/></g>
<g><path style="opacity:0.892" fill="#000000" d="M 428.5,345.5 C 434.167,345.5 439.833,345.5 445.5,345.5C 445.5,351.5 445.5,357.5 445.5,363.5C 439.833,363.5 434.167,363.5 428.5,363.5C 428.5,357.5 428.5,351.5 428.5,345.5 Z"/></g>
<g><path style="opacity:0.892" fill="#000000" d="M 461.5,345.5 C 467.167,345.5 472.833,345.5 478.5,345.5C 478.5,351.5 478.5,357.5 478.5,363.5C 472.833,363.5 467.167,363.5 461.5,363.5C 461.5,357.5 461.5,351.5 461.5,345.5 Z"/></g>
<g><path style="opacity:1" fill="#efbc5d" d="M 148.5,346.5 C 153.833,346.5 159.167,346.5 164.5,346.5C 164.5,373.833 164.5,401.167 164.5,428.5C 159.167,428.5 153.833,428.5 148.5,428.5C 148.5,401.167 148.5,373.833 148.5,346.5 Z"/></g>
<g><path style="opacity:0.892" fill="#000000" d="M 263.5,378.5 C 269.167,378.5 274.833,378.5 280.5,378.5C 280.5,384.5 280.5,390.5 280.5,396.5C 274.833,396.5 269.167,396.5 263.5,396.5C 263.5,390.5 263.5,384.5 263.5,378.5 Z"/></g>
<g><path style="opacity:0.892" fill="#000000" d="M 296.5,378.5 C 302.167,378.5 307.833,378.5 313.5,378.5C 313.5,384.5 313.5,390.5 313.5,396.5C 307.833,396.5 302.167,396.5 296.5,396.5C 296.5,390.5 296.5,384.5 296.5,378.5 Z"/></g>
<g><path style="opacity:0.892" fill="#000000" d="M 329.5,378.5 C 335.167,378.5 340.833,378.5 346.5,378.5C 346.5,384.5 346.5,390.5 346.5,396.5C 340.833,396.5 335.167,396.5 329.5,396.5C 329.5,390.5 329.5,384.5 329.5,378.5 Z"/></g>
<g><path style="opacity:0.892" fill="#000000" d="M 362.5,378.5 C 368.167,378.5 373.833,378.5 379.5,378.5C 379.5,384.5 379.5,390.5 379.5,396.5C 373.833,396.5 368.167,396.5 362.5,396.5C 362.5,390.5 362.5,384.5 362.5,378.5 Z"/></g>
<g><path style="opacity:0.892" fill="#000000" d="M 395.5,378.5 C 401.167,378.5 406.833,378.5 412.5,378.5C 412.5,384.5 412.5,390.5 412.5,396.5C 406.833,396.5 401.167,396.5 395.5,396.5C 395.5,390.5 395.5,384.5 395.5,378.5 Z"/></g>
<g><path style="opacity:0.909" fill="#000000" d="M 428.5,378.5 C 445.167,378.5 461.833,378.5 478.5,378.5C 478.5,384.5 478.5,390.5 478.5,396.5C 461.833,396.5 445.167,396.5 428.5,396.5C 428.5,390.5 428.5,384.5 428.5,378.5 Z"/></g>
<g><path style="opacity:1" fill="#efbc5d" d="M 115.5,379.5 C 120.833,379.5 126.167,379.5 131.5,379.5C 131.5,395.833 131.5,412.167 131.5,428.5C 126.167,428.5 120.833,428.5 115.5,428.5C 115.5,412.167 115.5,395.833 115.5,379.5 Z"/></g>
<g><path style="opacity:0.915" fill="#000000" d="M 263.5,411.5 C 302.167,411.5 340.833,411.5 379.5,411.5C 379.5,417.5 379.5,423.5 379.5,429.5C 340.833,429.5 302.167,429.5 263.5,429.5C 263.5,423.5 263.5,417.5 263.5,411.5 Z"/></g>
<g><path style="opacity:0.892" fill="#000000" d="M 395.5,411.5 C 401.167,411.5 406.833,411.5 412.5,411.5C 412.5,417.5 412.5,423.5 412.5,429.5C 406.833,429.5 401.167,429.5 395.5,429.5C 395.5,423.5 395.5,417.5 395.5,411.5 Z"/></g>
<g><path style="opacity:0.892" fill="#000000" d="M 428.5,411.5 C 434.167,411.5 439.833,411.5 445.5,411.5C 445.5,417.5 445.5,423.5 445.5,429.5C 439.833,429.5 434.167,429.5 428.5,429.5C 428.5,423.5 428.5,417.5 428.5,411.5 Z"/></g>
<g><path style="opacity:0.892" fill="#000000" d="M 461.5,411.5 C 467.167,411.5 472.833,411.5 478.5,411.5C 478.5,417.5 478.5,423.5 478.5,429.5C 472.833,429.5 467.167,429.5 461.5,429.5C 461.5,423.5 461.5,417.5 461.5,411.5 Z"/></g>
<g><path style="opacity:1" fill="#efbc5d" d="M 82.5,412.5 C 87.8333,412.5 93.1667,412.5 98.5,412.5C 98.5,417.833 98.5,423.167 98.5,428.5C 93.1667,428.5 87.8333,428.5 82.5,428.5C 82.5,423.167 82.5,417.833 82.5,412.5 Z"/></g>
</svg>
