<?xml version="1.0" encoding="UTF-8"?>
<!DOCTYPE svg PUBLIC "-//W3C//DTD SVG 1.1//EN" "http://www.w3.org/Graphics/SVG/1.1/DTD/svg11.dtd">
<svg xmlns="http://www.w3.org/2000/svg" version="1.1" width="512px" height="512px" style="shape-rendering:geometricPrecision; text-rendering:geometricPrecision; image-rendering:optimizeQuality; fill-rule:evenodd; clip-rule:evenodd" xmlns:xlink="http://www.w3.org/1999/xlink">
<g><path style="opacity:0.997" fill="#000000" d="M 24.5,55.5 C 178.5,55.3333 332.5,55.5 486.5,56C 494.667,58.8333 500.167,64.3333 503,72.5C 503.667,194.5 503.667,316.5 503,438.5C 500.167,446.667 494.667,452.167 486.5,455C 332.5,455.667 178.5,455.667 24.5,455C 16.3333,452.167 10.8333,446.667 8,438.5C 7.33333,316.5 7.33333,194.5 8,72.5C 11.0191,64.3156 16.5191,58.649 24.5,55.5 Z M 31.5,71.5 C 180.834,71.3333 330.167,71.5 479.5,72C 484,72.5 486.5,75 487,79.5C 487.5,103.498 487.667,127.498 487.5,151.5C 332.833,151.5 178.167,151.5 23.5,151.5C 23.3334,127.498 23.5,103.498 24,79.5C 24.6804,74.9895 27.1804,72.3228 31.5,71.5 Z M 55.5,103.5 C 60.8333,103.5 66.1667,103.5 71.5,103.5C 71.5,108.833 71.5,114.167 71.5,119.5C 66.1667,119.5 60.8333,119.5 55.5,119.5C 55.5,114.167 55.5,108.833 55.5,103.5 Z M 119.5,103.5 C 124.833,103.5 130.167,103.5 135.5,103.5C 135.5,108.833 135.5,114.167 135.5,119.5C 130.167,119.5 124.833,119.5 119.5,119.5C 119.5,114.167 119.5,108.833 119.5,103.5 Z M 183.5,103.5 C 188.833,103.5 194.167,103.5 199.5,103.5C 199.5,108.833 199.5,114.167 199.5,119.5C 194.167,119.5 188.833,119.5 183.5,119.5C 183.5,114.167 183.5,108.833 183.5,103.5 Z M 23.5,167.5 C 103.5,167.5 183.5,167.5 263.5,167.5C 263.5,258.167 263.5,348.833 263.5,439.5C 186.166,439.667 108.833,439.5 31.5,439C 27,438.5 24.5,436 24,431.5C 23.5,343.501 23.3333,255.501 23.5,167.5 Z M 279.5,167.5 C 348.833,167.5 418.167,167.5 487.5,167.5C 487.667,255.501 487.5,343.501 487,431.5C 486.5,436 484,438.5 479.5,439C 412.834,439.5 346.167,439.667 279.5,439.5C 279.5,348.833 279.5,258.167 279.5,167.5 Z M 311.5,391.5 C 316.833,391.5 322.167,391.5 327.5,391.5C 327.5,396.833 327.5,402.167 327.5,407.5C 322.167,407.5 316.833,407.5 311.5,407.5C 311.5,402.167 311.5,396.833 311.5,391.5 Z M 375.5,391.5 C 380.833,391.5 386.167,391.5 391.5,391.5C 391.5,396.833 391.5,402.167 391.5,407.5C 386.167,407.5 380.833,407.5 375.5,407.5C 375.5,402.167 375.5,396.833 375.5,391.5 Z M 439.5,391.5 C 444.833,391.5 450.167,391.5 455.5,391.5C 455.5,396.833 455.5,402.167 455.5,407.5C 450.167,407.5 444.833,407.5 439.5,407.5C 439.5,402.167 439.5,396.833 439.5,391.5 Z"/></g>
<g><path style="opacity:1" fill="#000000" d="M 39.5,87.5 C 55.5,87.5 71.5,87.5 87.5,87.5C 87.5,103.5 87.5,119.5 87.5,135.5C 71.5,135.5 55.5,135.5 39.5,135.5C 39.5,119.5 39.5,103.5 39.5,87.5 Z M 55.5,103.5 C 55.5,108.833 55.5,114.167 55.5,119.5C 60.8333,119.5 66.1667,119.5 71.5,119.5C 71.5,114.167 71.5,108.833 71.5,103.5C 66.1667,103.5 60.8333,103.5 55.5,103.5 Z"/></g>
<g><path style="opacity:1" fill="#000000" d="M 103.5,87.5 C 119.5,87.5 135.5,87.5 151.5,87.5C 151.5,103.5 151.5,119.5 151.5,135.5C 135.5,135.5 119.5,135.5 103.5,135.5C 103.5,119.5 103.5,103.5 103.5,87.5 Z M 119.5,103.5 C 119.5,108.833 119.5,114.167 119.5,119.5C 124.833,119.5 130.167,119.5 135.5,119.5C 135.5,114.167 135.5,108.833 135.5,103.5C 130.167,103.5 124.833,103.5 119.5,103.5 Z"/></g>
<g><path style="opacity:1" fill="#000000" d="M 167.5,87.5 C 183.5,87.5 199.5,87.5 215.5,87.5C 215.5,103.5 215.5,119.5 215.5,135.5C 199.5,135.5 183.5,135.5 167.5,135.5C 167.5,119.5 167.5,103.5 167.5,87.5 Z M 183.5,103.5 C 183.5,108.833 183.5,114.167 183.5,119.5C 188.833,119.5 194.167,119.5 199.5,119.5C 199.5,114.167 199.5,108.833 199.5,103.5C 194.167,103.5 188.833,103.5 183.5,103.5 Z"/></g>
<g><path style="opacity:1" fill="#efbc5d" d="M 39.5,183.5 C 108.833,183.5 178.167,183.5 247.5,183.5C 247.5,220.833 247.5,258.167 247.5,295.5C 178.167,295.5 108.833,295.5 39.5,295.5C 39.5,258.167 39.5,220.833 39.5,183.5 Z"/></g>
<g><path style="opacity:1" fill="#efbc5d" d="M 295.5,183.5 C 327.5,183.5 359.5,183.5 391.5,183.5C 391.5,220.833 391.5,258.167 391.5,295.5C 359.5,295.5 327.5,295.5 295.5,295.5C 295.5,258.167 295.5,220.833 295.5,183.5 Z"/></g>
<g><path style="opacity:1" fill="#000000" d="M 423.5,183.5 C 423.5,188.833 423.5,194.167 423.5,199.5C 418.167,199.5 412.833,199.5 407.5,199.5C 407.5,194.167 407.5,188.833 407.5,183.5C 412.833,183.5 418.167,183.5 423.5,183.5 Z"/></g>
<g><path style="opacity:1" fill="#efbc5d" d="M 423.5,183.5 C 428.833,183.5 434.167,183.5 439.5,183.5C 439.5,188.833 439.5,194.167 439.5,199.5C 450.167,199.5 460.833,199.5 471.5,199.5C 471.5,204.833 471.5,210.167 471.5,215.5C 450.167,215.5 428.833,215.5 407.5,215.5C 407.5,210.167 407.5,204.833 407.5,199.5C 412.833,199.5 418.167,199.5 423.5,199.5C 423.5,194.167 423.5,188.833 423.5,183.5 Z"/></g>
<g><path style="opacity:1" fill="#000000" d="M 439.5,183.5 C 450.167,183.5 460.833,183.5 471.5,183.5C 471.5,188.833 471.5,194.167 471.5,199.5C 460.833,199.5 450.167,199.5 439.5,199.5C 439.5,194.167 439.5,188.833 439.5,183.5 Z"/></g>
<g><path style="opacity:1" fill="#000000" d="M 407.5,215.5 C 428.833,215.5 450.167,215.5 471.5,215.5C 471.5,220.833 471.5,226.167 471.5,231.5C 450.167,231.5 428.833,231.5 407.5,231.5C 407.5,226.167 407.5,220.833 407.5,215.5 Z"/></g>
<g><path style="opacity:1" fill="#efbc5d" d="M 407.5,231.5 C 428.833,231.5 450.167,231.5 471.5,231.5C 471.5,236.833 471.5,242.167 471.5,247.5C 450.167,247.5 428.833,247.5 407.5,247.5C 407.5,242.167 407.5,236.833 407.5,231.5 Z"/></g>
<g><path style="opacity:1" fill="#000000" d="M 407.5,247.5 C 428.833,247.5 450.167,247.5 471.5,247.5C 471.5,252.833 471.5,258.167 471.5,263.5C 450.167,263.5 428.833,263.5 407.5,263.5C 407.5,258.167 407.5,252.833 407.5,247.5 Z"/></g>
<g><path style="opacity:1" fill="#efbc5d" d="M 407.5,263.5 C 428.833,263.5 450.167,263.5 471.5,263.5C 471.5,268.833 471.5,274.167 471.5,279.5C 450.167,279.5 428.833,279.5 407.5,279.5C 407.5,274.167 407.5,268.833 407.5,263.5 Z"/></g>
<g><path style="opacity:1" fill="#000000" d="M 407.5,279.5 C 428.833,279.5 450.167,279.5 471.5,279.5C 471.5,284.833 471.5,290.167 471.5,295.5C 450.167,295.5 428.833,295.5 407.5,295.5C 407.5,290.167 407.5,284.833 407.5,279.5 Z"/></g>
<g><path style="opacity:1" fill="#efbc5d" d="M 39.5,311.5 C 108.833,311.5 178.167,311.5 247.5,311.5C 247.5,348.833 247.5,386.167 247.5,423.5C 178.167,423.5 108.833,423.5 39.5,423.5C 39.5,386.167 39.5,348.833 39.5,311.5 Z"/></g>
<g><path style="opacity:1" fill="#000000" d="M 311.5,311.5 C 311.5,316.833 311.5,322.167 311.5,327.5C 306.167,327.5 300.833,327.5 295.5,327.5C 295.5,322.167 295.5,316.833 295.5,311.5C 300.833,311.5 306.167,311.5 311.5,311.5 Z"/></g>
<g><path style="opacity:1" fill="#efbc5d" d="M 311.5,311.5 C 316.833,311.5 322.167,311.5 327.5,311.5C 327.5,316.833 327.5,322.167 327.5,327.5C 375.5,327.5 423.5,327.5 471.5,327.5C 471.5,332.833 471.5,338.167 471.5,343.5C 466.167,343.5 460.833,343.5 455.5,343.5C 455.5,348.833 455.5,354.167 455.5,359.5C 450.167,359.5 444.833,359.5 439.5,359.5C 439.5,354.167 439.5,348.833 439.5,343.5C 391.5,343.5 343.5,343.5 295.5,343.5C 295.5,338.167 295.5,332.833 295.5,327.5C 300.833,327.5 306.167,327.5 311.5,327.5C 311.5,322.167 311.5,316.833 311.5,311.5 Z"/></g>
<g><path style="opacity:1" fill="#000000" d="M 327.5,311.5 C 375.5,311.5 423.5,311.5 471.5,311.5C 471.5,316.833 471.5,322.167 471.5,327.5C 423.5,327.5 375.5,327.5 327.5,327.5C 327.5,322.167 327.5,316.833 327.5,311.5 Z"/></g>
<g><path style="opacity:1" fill="#000000" d="M 295.5,343.5 C 343.5,343.5 391.5,343.5 439.5,343.5C 439.5,348.833 439.5,354.167 439.5,359.5C 391.5,359.5 343.5,359.5 295.5,359.5C 295.5,354.167 295.5,348.833 295.5,343.5 Z"/></g>
<g><path style="opacity:1" fill="#000000" d="M 471.5,343.5 C 471.5,348.833 471.5,354.167 471.5,359.5C 466.167,359.5 460.833,359.5 455.5,359.5C 455.5,354.167 455.5,348.833 455.5,343.5C 460.833,343.5 466.167,343.5 471.5,343.5 Z"/></g>
<g><path style="opacity:1" fill="#000000" d="M 295.5,375.5 C 311.5,375.5 327.5,375.5 343.5,375.5C 343.5,391.5 343.5,407.5 343.5,423.5C 327.5,423.5 311.5,423.5 295.5,423.5C 295.5,407.5 295.5,391.5 295.5,375.5 Z M 311.5,391.5 C 311.5,396.833 311.5,402.167 311.5,407.5C 316.833,407.5 322.167,407.5 327.5,407.5C 327.5,402.167 327.5,396.833 327.5,391.5C 322.167,391.5 316.833,391.5 311.5,391.5 Z"/></g>
<g><path style="opacity:1" fill="#000000" d="M 359.5,375.5 C 375.5,375.5 391.5,375.5 407.5,375.5C 407.5,391.5 407.5,407.5 407.5,423.5C 391.5,423.5 375.5,423.5 359.5,423.5C 359.5,407.5 359.5,391.5 359.5,375.5 Z M 375.5,391.5 C 375.5,396.833 375.5,402.167 375.5,407.5C 380.833,407.5 386.167,407.5 391.5,407.5C 391.5,402.167 391.5,396.833 391.5,391.5C 386.167,391.5 380.833,391.5 375.5,391.5 Z"/></g>
<g><path style="opacity:1" fill="#000000" d="M 423.5,375.5 C 439.5,375.5 455.5,375.5 471.5,375.5C 471.5,391.5 471.5,407.5 471.5,423.5C 455.5,423.5 439.5,423.5 423.5,423.5C 423.5,407.5 423.5,391.5 423.5,375.5 Z M 439.5,391.5 C 439.5,396.833 439.5,402.167 439.5,407.5C 444.833,407.5 450.167,407.5 455.5,407.5C 455.5,402.167 455.5,396.833 455.5,391.5C 450.167,391.5 444.833,391.5 439.5,391.5 Z"/></g>
</svg>
