<?xml version="1.0" encoding="UTF-8"?>
<!DOCTYPE svg PUBLIC "-//W3C//DTD SVG 1.1//EN" "http://www.w3.org/Graphics/SVG/1.1/DTD/svg11.dtd">
<svg xmlns="http://www.w3.org/2000/svg" version="1.1" width="512px" height="512px" style="shape-rendering:geometricPrecision; text-rendering:geometricPrecision; image-rendering:optimizeQuality; fill-rule:evenodd; clip-rule:evenodd" xmlns:xlink="http://www.w3.org/1999/xlink">
<g><path style="opacity:0.962" fill="#000000" d="M 327.5,-0.5 C 385.167,-0.5 442.833,-0.5 500.5,-0.5C 505.833,1.5 509.5,5.16667 511.5,10.5C 511.5,85.8333 511.5,161.167 511.5,236.5C 509.021,241.143 505.355,244.643 500.5,247C 471.169,247.5 441.835,247.667 412.5,247.5C 412.667,302.168 412.5,356.834 412,411.5C 408.656,420.843 402.156,426.677 392.5,429C 349.835,429.5 307.168,429.667 264.5,429.5C 264.5,440.167 264.5,450.833 264.5,461.5C 287.836,461.333 311.169,461.5 334.5,462C 339.91,463.743 343.744,467.243 346,472.5C 346.667,481.833 346.667,491.167 346,500.5C 343.954,505.71 340.454,509.377 335.5,511.5C 249.167,511.5 162.833,511.5 76.5,511.5C 71.1844,509.682 67.6844,506.016 66,500.5C 65.3333,491.167 65.3333,481.833 66,472.5C 68.2563,467.243 72.0896,463.743 77.5,462C 100.831,461.5 124.164,461.333 147.5,461.5C 147.5,450.833 147.5,440.167 147.5,429.5C 104.832,429.667 62.1654,429.5 19.5,429C 9.82441,426.485 3.15774,420.651 -0.5,411.5C -0.5,313.167 -0.5,214.833 -0.5,116.5C 2.04429,108.287 7.37762,102.62 15.5,99.5C 26.7953,98.5658 38.1286,98.2325 49.5,98.5C 47.3536,74.2813 57.6869,58.1147 80.5,50C 106.081,46.698 122.915,57.198 131,81.5C 131.626,87.1949 131.459,92.8615 130.5,98.5C 142.167,98.5 153.833,98.5 165.5,98.5C 203.5,98.5 241.5,98.5 279.5,98.5C 279.055,80.7775 279.555,63.1108 281,45.5C 293.436,31.0612 306.603,17.2279 320.5,4C 322.76,2.21166 325.093,0.711662 327.5,-0.5 Z M 346.5,16.5 C 395.833,16.5 445.167,16.5 494.5,16.5C 494.5,87.8333 494.5,159.167 494.5,230.5C 428.833,230.5 363.167,230.5 297.5,230.5C 297.5,175.833 297.5,121.167 297.5,66.5C 313.833,66.5 330.167,66.5 346.5,66.5C 346.5,49.8333 346.5,33.1667 346.5,16.5 Z M 328.5,21.5 C 329.493,30.3178 329.827,39.3178 329.5,48.5C 320.494,48.6664 311.494,48.4998 302.5,48C 311.369,39.2983 320.036,30.465 328.5,21.5 Z M 83.5,66.5 C 106.233,65.3256 116.233,75.9923 113.5,98.5C 98.1522,98.8327 82.8189,98.4994 67.5,97.5C 64.6533,82.8582 69.9867,72.5249 83.5,66.5 Z M 22.5,115.5 C 108.167,115.5 193.833,115.5 279.5,115.5C 279.5,120.833 279.5,126.167 279.5,131.5C 197.167,131.5 114.833,131.5 32.5,131.5C 32.5,208.5 32.5,285.5 32.5,362.5C 27.1667,362.5 21.8333,362.5 16.5,362.5C 16.3333,282.166 16.5,201.833 17,121.5C 18.0209,118.65 19.8542,116.65 22.5,115.5 Z M 49.5,148.5 C 126.167,148.5 202.833,148.5 279.5,148.5C 279.333,176.835 279.5,205.169 280,233.5C 281.146,240.294 284.979,244.794 291.5,247C 315.164,247.5 338.831,247.667 362.5,247.5C 362.5,285.833 362.5,324.167 362.5,362.5C 258.167,362.5 153.833,362.5 49.5,362.5C 49.5,291.167 49.5,219.833 49.5,148.5 Z M 379.5,247.5 C 384.833,247.5 390.167,247.5 395.5,247.5C 395.5,285.833 395.5,324.167 395.5,362.5C 390.167,362.5 384.833,362.5 379.5,362.5C 379.5,324.167 379.5,285.833 379.5,247.5 Z M 16.5,379.5 C 142.833,379.5 269.167,379.5 395.5,379.5C 395.666,388.506 395.5,397.506 395,406.5C 394.167,408.667 392.667,410.167 390.5,411C 386.848,411.499 383.182,411.665 379.5,411.5C 379.5,406.167 379.5,400.833 379.5,395.5C 373.833,395.5 368.167,395.5 362.5,395.5C 362.5,400.833 362.5,406.167 362.5,411.5C 357.167,411.5 351.833,411.5 346.5,411.5C 346.5,406.167 346.5,400.833 346.5,395.5C 340.833,395.5 335.167,395.5 329.5,395.5C 329.5,400.833 329.5,406.167 329.5,411.5C 324.167,411.5 318.833,411.5 313.5,411.5C 313.5,406.167 313.5,400.833 313.5,395.5C 307.833,395.5 302.167,395.5 296.5,395.5C 296.5,400.833 296.5,406.167 296.5,411.5C 204.833,411.667 113.166,411.5 21.5,411C 19.3333,410.167 17.8333,408.667 17,406.5C 16.5002,397.506 16.3336,388.506 16.5,379.5 Z M 165.5,429.5 C 192.5,429.5 219.5,429.5 246.5,429.5C 246.5,440.167 246.5,450.833 246.5,461.5C 219.5,461.5 192.5,461.5 165.5,461.5C 165.5,450.833 165.5,440.167 165.5,429.5 Z M 82.5,478.5 C 164.833,478.5 247.167,478.5 329.5,478.5C 329.5,483.833 329.5,489.167 329.5,494.5C 247.167,494.5 164.833,494.5 82.5,494.5C 82.5,489.167 82.5,483.833 82.5,478.5 Z"/></g>
<g><path style="opacity:0.989" fill="#efbb5d" d="M 165.5,98.5 C 153.833,98.5 142.167,98.5 130.5,98.5C 131.459,92.8615 131.626,87.1949 131,81.5C 122.915,57.198 106.081,46.698 80.5,50C 57.6869,58.1147 47.3536,74.2813 49.5,98.5C 38.1286,98.2325 26.7953,98.5658 15.5,99.5C 15.5,88.1667 15.5,76.8333 15.5,65.5C 20.1785,65.6658 24.8452,65.4992 29.5,65C 26.1667,61.6667 22.8333,58.3333 19.5,55C 31.3333,43.1667 43.1667,31.3333 55,19.5C 58.3333,22.8333 61.6667,26.1667 65,29.5C 65.4992,24.8452 65.6658,20.1785 65.5,15.5C 82.1667,15.5 98.8333,15.5 115.5,15.5C 115.334,19.8461 115.501,24.1794 116,28.5C 118.833,25.6667 121.667,22.8333 124.5,20C 125.167,19.3333 125.833,19.3333 126.5,20C 137.667,31.1667 148.833,42.3333 160,53.5C 160.667,54.5 160.667,55.5 160,56.5C 157.167,59.3333 154.333,62.1667 151.5,65C 156.155,65.4992 160.821,65.6658 165.5,65.5C 165.5,76.5 165.5,87.5 165.5,98.5 Z M 83.5,66.5 C 69.9867,72.5249 64.6533,82.8582 67.5,97.5C 82.8189,98.4994 98.1522,98.8327 113.5,98.5C 116.233,75.9923 106.233,65.3256 83.5,66.5 Z"/></g>
<g><path style="opacity:0.922" fill="#000000" d="M 341.5,81.5 C 348.833,81.5 356.167,81.5 363.5,81.5C 363.5,87.5 363.5,93.5 363.5,99.5C 356.159,99.3337 348.826,99.5003 341.5,100C 329.962,105.817 327.462,114.317 334,125.5C 336.863,128.515 340.363,130.349 344.5,131C 350.825,131.5 357.158,131.666 363.5,131.5C 363.5,137.167 363.5,142.833 363.5,148.5C 355.493,148.666 347.493,148.5 339.5,148C 322.487,143.646 313.487,132.646 312.5,115C 313.954,96.5286 323.62,85.3619 341.5,81.5 Z"/></g>
<g><path style="opacity:0.922" fill="#000000" d="M 391.5,81.5 C 401.5,81.5 411.5,81.5 421.5,81.5C 421.5,87.5 421.5,93.5 421.5,99.5C 413.167,99.5 404.833,99.5 396.5,99.5C 396.33,100.822 396.663,101.989 397.5,103C 404.772,107.219 411.605,112.052 418,117.5C 423.277,127.161 422.444,136.161 415.5,144.5C 413.446,146.194 411.112,147.361 408.5,148C 398.506,148.5 388.506,148.666 378.5,148.5C 378.5,142.833 378.5,137.167 378.5,131.5C 386.833,131.5 395.167,131.5 403.5,131.5C 403.762,130.022 403.429,128.689 402.5,127.5C 395.246,123.08 388.412,118.08 382,112.5C 377.333,104.5 377.333,96.5 382,88.5C 384.529,85.1151 387.696,82.7818 391.5,81.5 Z"/></g>
<g><path style="opacity:0.932" fill="#000000" d="M 449.5,81.5 C 459.167,81.5 468.833,81.5 478.5,81.5C 478.5,87.5 478.5,93.5 478.5,99.5C 470.5,99.5 462.5,99.5 454.5,99.5C 454.33,100.822 454.663,101.989 455.5,103C 462.772,107.219 469.605,112.052 476,117.5C 476.667,118.833 477.333,120.167 478,121.5C 478.667,126.833 478.667,132.167 478,137.5C 475.744,142.757 471.91,146.257 466.5,148C 456.506,148.5 446.506,148.666 436.5,148.5C 436.5,142.833 436.5,137.167 436.5,131.5C 444.833,131.5 453.167,131.5 461.5,131.5C 461.762,130.022 461.429,128.689 460.5,127.5C 453.557,123.223 446.89,118.556 440.5,113.5C 434.084,102.543 435.418,92.7097 444.5,84C 446.315,83.2432 447.981,82.4098 449.5,81.5 Z"/></g>
<g><path style="opacity:0.923" fill="#000000" d="M 103.5,180.5 C 107.5,180.5 111.5,180.5 115.5,180.5C 115.5,186.5 115.5,192.5 115.5,198.5C 111.818,198.335 108.152,198.501 104.5,199C 103.069,199.465 101.903,200.299 101,201.5C 100.297,213.406 95.4633,223.24 86.5,231C 95.667,237.835 100.167,247.001 100,258.5C 104.182,262.925 109.348,264.592 115.5,263.5C 115.5,269.167 115.5,274.833 115.5,280.5C 93.4991,281.905 81.6658,271.571 80,249.5C 73.6519,243.319 67.4852,236.986 61.5,230.5C 67.4852,224.014 73.6519,217.681 80,211.5C 80.6593,195.438 88.4926,185.104 103.5,180.5 Z"/></g>
<g><path style="opacity:0.545" fill="#624c27" d="M 181.5,181.5 C 181.5,181.167 181.5,180.833 181.5,180.5C 198.167,180.5 214.833,180.5 231.5,180.5C 231.5,186.167 231.5,191.833 231.5,197.5C 231.167,197.5 230.833,197.5 230.5,197.5C 230.5,192.167 230.5,186.833 230.5,181.5C 214.167,181.5 197.833,181.5 181.5,181.5 Z"/></g>
<g><path style="opacity:0.842" fill="#000000" d="M 337.5,180.5 C 343.5,180.5 349.5,180.5 355.5,180.5C 355.5,186.5 355.5,192.5 355.5,198.5C 349.5,198.5 343.5,198.5 337.5,198.5C 337.5,192.5 337.5,186.5 337.5,180.5 Z"/></g>
<g><path style="opacity:0.892" fill="#000000" d="M 387.5,180.5 C 393.167,180.5 398.833,180.5 404.5,180.5C 404.5,186.5 404.5,192.5 404.5,198.5C 398.833,198.5 393.167,198.5 387.5,198.5C 387.5,192.5 387.5,186.5 387.5,180.5 Z"/></g>
<g><path style="opacity:0.842" fill="#000000" d="M 436.5,180.5 C 442.5,180.5 448.5,180.5 454.5,180.5C 454.5,186.5 454.5,192.5 454.5,198.5C 448.5,198.5 442.5,198.5 436.5,198.5C 436.5,192.5 436.5,186.5 436.5,180.5 Z"/></g>
<g><path style="opacity:1" fill="#090703" d="M 164.5,180.5 C 164.5,186.167 164.5,191.833 164.5,197.5C 153.5,197.5 142.5,197.5 131.5,197.5C 131.5,191.833 131.5,186.167 131.5,180.5C 142.5,180.5 153.5,180.5 164.5,180.5 Z"/></g>
<g><path style="opacity:0.999" fill="#e9b75b" d="M 164.5,180.5 C 170.167,180.5 175.833,180.5 181.5,180.5C 181.5,180.833 181.5,181.167 181.5,181.5C 181.5,186.833 181.5,192.167 181.5,197.5C 197.833,197.5 214.167,197.5 230.5,197.5C 230.833,197.5 231.167,197.5 231.5,197.5C 231.5,203.167 231.5,208.833 231.5,214.5C 231.167,214.5 230.833,214.5 230.5,214.5C 197.5,214.5 164.5,214.5 131.5,214.5C 131.5,208.833 131.5,203.167 131.5,197.5C 142.5,197.5 153.5,197.5 164.5,197.5C 164.5,191.833 164.5,186.167 164.5,180.5 Z"/></g>
<g><path style="opacity:1" fill="#000000" d="M 181.5,181.5 C 197.833,181.5 214.167,181.5 230.5,181.5C 230.5,186.833 230.5,192.167 230.5,197.5C 214.167,197.5 197.833,197.5 181.5,197.5C 181.5,192.167 181.5,186.833 181.5,181.5 Z"/></g>
<g><path style="opacity:1" fill="#000000" d="M 131.5,214.5 C 164.5,214.5 197.5,214.5 230.5,214.5C 230.5,219.833 230.5,225.167 230.5,230.5C 197.5,230.5 164.5,230.5 131.5,230.5C 131.5,225.167 131.5,219.833 131.5,214.5 Z"/></g>
<g><path style="opacity:1" fill="#ae8944" d="M 230.5,214.5 C 230.833,214.5 231.167,214.5 231.5,214.5C 231.5,220.167 231.5,225.833 231.5,231.5C 198.167,231.5 164.833,231.5 131.5,231.5C 131.5,231.167 131.5,230.833 131.5,230.5C 164.5,230.5 197.5,230.5 230.5,230.5C 230.5,225.167 230.5,219.833 230.5,214.5 Z"/></g>
<g><path style="opacity:0.926" fill="#000000" d="M 246.5,230.5 C 261.356,228.012 272.189,233.345 279,246.5C 279.756,252.007 281.09,257.34 283,262.5C 289.015,268.348 294.848,274.348 300.5,280.5C 294.515,286.986 288.348,293.319 282,299.5C 280.277,321.389 268.443,331.722 246.5,330.5C 246.5,324.5 246.5,318.5 246.5,312.5C 250.182,312.665 253.848,312.499 257.5,312C 259.286,311.215 260.786,310.049 262,308.5C 262.484,297.199 266.984,287.866 275.5,280.5C 271.038,276.54 267.538,271.874 265,266.5C 264.313,260.969 262.98,255.636 261,250.5C 256.568,247.835 251.734,246.835 246.5,247.5C 246.5,241.833 246.5,236.167 246.5,230.5 Z"/></g>
<g><path style="opacity:0.999" fill="#ecb95c" d="M 131.5,231.5 C 164.833,231.5 198.167,231.5 231.5,231.5C 231.5,236.833 231.5,242.167 231.5,247.5C 231.167,247.5 230.833,247.5 230.5,247.5C 197.5,247.5 164.5,247.5 131.5,247.5C 131.5,242.167 131.5,236.833 131.5,231.5 Z"/></g>
<g><path style="opacity:1" fill="#000000" d="M 131.5,247.5 C 164.5,247.5 197.5,247.5 230.5,247.5C 230.5,252.833 230.5,258.167 230.5,263.5C 197.5,263.5 164.5,263.5 131.5,263.5C 131.5,258.167 131.5,252.833 131.5,247.5 Z"/></g>
<g><path style="opacity:0.999" fill="#a88342" d="M 230.5,247.5 C 230.833,247.5 231.167,247.5 231.5,247.5C 231.5,253.167 231.5,258.833 231.5,264.5C 198.167,264.5 164.833,264.5 131.5,264.5C 131.5,264.167 131.5,263.833 131.5,263.5C 164.5,263.5 197.5,263.5 230.5,263.5C 230.5,258.167 230.5,252.833 230.5,247.5 Z"/></g>
<g><path style="opacity:0.999" fill="#ecb95c" d="M 131.5,264.5 C 164.833,264.5 198.167,264.5 231.5,264.5C 231.5,269.833 231.5,275.167 231.5,280.5C 231.167,280.5 230.833,280.5 230.5,280.5C 197.5,280.5 164.5,280.5 131.5,280.5C 131.5,275.167 131.5,269.833 131.5,264.5 Z"/></g>
<g><path style="opacity:1" fill="#000000" d="M 131.5,280.5 C 164.5,280.5 197.5,280.5 230.5,280.5C 230.5,285.833 230.5,291.167 230.5,296.5C 197.5,296.5 164.5,296.5 131.5,296.5C 131.5,291.167 131.5,285.833 131.5,280.5 Z"/></g>
<g><path style="opacity:0.999" fill="#a17e3f" d="M 230.5,280.5 C 230.833,280.5 231.167,280.5 231.5,280.5C 231.5,286.167 231.5,291.833 231.5,297.5C 198.167,297.5 164.833,297.5 131.5,297.5C 131.5,297.167 131.5,296.833 131.5,296.5C 164.5,296.5 197.5,296.5 230.5,296.5C 230.5,291.167 230.5,285.833 230.5,280.5 Z"/></g>
<g><path style="opacity:0.999" fill="#edb95c" d="M 131.5,297.5 C 164.833,297.5 198.167,297.5 231.5,297.5C 231.5,302.833 231.5,308.167 231.5,313.5C 198.167,313.5 164.833,313.5 131.5,313.5C 131.5,308.167 131.5,302.833 131.5,297.5 Z"/></g>
<g><path style="opacity:0.892" fill="#000000" d="M 296.5,312.5 C 302.167,312.5 307.833,312.5 313.5,312.5C 313.5,318.5 313.5,324.5 313.5,330.5C 307.833,330.5 302.167,330.5 296.5,330.5C 296.5,324.5 296.5,318.5 296.5,312.5 Z"/></g>
<g><path style="opacity:0.892" fill="#000000" d="M 329.5,312.5 C 335.167,312.5 340.833,312.5 346.5,312.5C 346.5,318.5 346.5,324.5 346.5,330.5C 340.833,330.5 335.167,330.5 329.5,330.5C 329.5,324.5 329.5,318.5 329.5,312.5 Z"/></g>
<g><path style="opacity:0.956" fill="#000000" d="M 131.5,313.5 C 164.833,313.5 198.167,313.5 231.5,313.5C 231.5,319.167 231.5,324.833 231.5,330.5C 198.167,330.5 164.833,330.5 131.5,330.5C 131.5,324.833 131.5,319.167 131.5,313.5 Z"/></g>
<g><path style="opacity:0.941" fill="#000000" d="M 444.5,511.5 C 423.167,511.5 401.833,511.5 380.5,511.5C 371.493,508.195 365.66,501.862 363,492.5C 359.23,470.465 365.73,452.299 382.5,438C 402.485,425.376 422.485,425.376 442.5,438C 462.16,455.632 467.326,476.799 458,501.5C 454.421,506.269 449.921,509.603 444.5,511.5 Z M 410.5,445.5 C 436.673,449.14 447.84,464.14 444,490.5C 443.167,491.333 442.333,492.167 441.5,493C 422.924,494.64 404.257,494.974 385.5,494C 383.714,493.215 382.214,492.049 381,490.5C 376.842,466.118 386.675,451.118 410.5,445.5 Z"/></g>
</svg>
