<?xml version="1.0" standalone="no"?>
<!DOCTYPE svg PUBLIC "-//W3C//DTD SVG 20010904//EN"
 "http://www.w3.org/TR/2001/REC-SVG-20010904/DTD/svg10.dtd">
<svg version="1.0" xmlns="http://www.w3.org/2000/svg"
 width="512.000000pt" height="512.000000pt" viewBox="0 0 512.000000 512.000000"
 preserveAspectRatio="xMidYMid meet">

<g transform="translate(0.000000,512.000000) scale(0.100000,-0.100000)"
fill="#d3d0cb" stroke="none">
<path d="M2506 4918 c-13 -13 -61 -90 -106 -173 -44 -82 -89 -159 -100 -169
-13 -13 -76 -32 -206 -62 -206 -46 -226 -57 -226 -118 0 -39 0 -39 175 -241
44 -49 83 -100 87 -111 5 -13 0 -105 -12 -224 -20 -201 -20 -202 -1 -228 37
-50 78 -43 257 43 87 41 171 75 186 75 15 0 98 -34 185 -75 174 -83 210 -91
250 -50 30 29 30 23 5 253 -12 114 -16 191 -11 205 5 12 44 63 87 112 170 197
174 203 174 244 0 60 -20 70 -226 117 -113 25 -192 48 -204 59 -11 10 -58 89
-105 176 -48 87 -96 166 -108 174 -31 22 -72 19 -101 -7z"/>
<path d="M824 4432 c-39 -6 -56 -39 -95 -179 -58 -208 -40 -185 -215 -269 -89
-42 -157 -81 -163 -93 -12 -22 -14 -61 -5 -85 3 -9 68 -61 145 -117 108 -79
140 -108 148 -132 5 -18 17 -97 26 -177 18 -152 29 -185 71 -200 40 -16 63 -4
189 96 66 52 130 97 142 100 13 3 86 -8 163 -25 165 -36 189 -38 218 -11 40
37 37 60 -22 232 -32 89 -55 172 -52 183 3 11 37 81 77 155 85 161 91 185 56
226 l-25 29 -159 2 c-87 1 -168 2 -180 2 -15 1 -58 40 -135 126 -110 121 -140
144 -184 137z"/>
<path d="M4171 4358 c-36 -40 -92 -100 -123 -133 l-57 -60 -176 0 -177 0 -24
-28 c-13 -15 -24 -39 -24 -53 0 -13 34 -88 75 -166 42 -79 78 -152 81 -163 3
-11 -20 -94 -51 -183 -60 -173 -62 -195 -23 -232 29 -27 52 -26 219 11 77 17
151 28 163 25 11 -3 75 -48 141 -100 127 -101 149 -112 189 -96 41 15 53 48
71 195 26 218 14 197 174 314 76 56 142 108 145 117 9 24 7 63 -5 86 -6 12
-73 50 -163 93 -175 83 -156 60 -215 268 -21 75 -46 146 -56 157 -12 14 -31
20 -58 20 -38 0 -46 -5 -106 -72z"/>
<path d="M2525 3196 c-57 -44 -207 -129 -303 -171 -249 -109 -546 -178 -864
-201 -54 -3 -98 -9 -98 -13 0 -4 -46 -252 -102 -551 l-102 -545 0 -170 c1
-151 4 -181 27 -268 30 -111 95 -256 157 -347 90 -133 238 -266 380 -343 36
-19 262 -119 503 -222 l437 -187 438 187 c240 103 466 203 502 222 259 140
458 396 537 691 23 86 26 116 27 267 l0 170 -102 544 c-56 299 -102 547 -102
551 0 4 -44 11 -97 14 -452 32 -829 148 -1131 348 -40 26 -73 48 -75 48 -1 0
-15 -11 -32 -24z m194 -270 c280 -141 551 -222 856 -256 81 -9 104 -16 123
-34 21 -20 34 -78 110 -482 84 -449 86 -462 86 -609 -1 -177 -18 -256 -88
-400 -75 -154 -181 -274 -326 -371 -91 -62 -902 -408 -935 -400 -13 3 -207 85
-432 181 -449 192 -521 233 -635 353 -110 117 -188 255 -230 410 -17 62 -21
106 -22 227 0 147 2 160 86 609 76 404 89 462 110 482 19 19 41 25 128 34 294
31 582 118 854 257 78 39 147 72 155 72 7 1 79 -32 160 -73z"/>
<path d="M2485 2773 c-247 -127 -607 -237 -877 -268 -32 -3 -58 -7 -58 -9 0
-1 -36 -197 -80 -436 -53 -288 -80 -460 -80 -508 0 -134 41 -280 111 -399 48
-79 171 -200 254 -249 39 -22 235 -111 437 -197 l368 -158 385 165 c211 91
408 180 437 199 225 145 360 403 345 665 -4 77 -148 907 -159 918 -2 1 -55 9
-118 19 -273 39 -581 136 -810 256 -42 21 -78 39 -80 39 -3 -1 -36 -17 -75
-37z m-572 -564 c16 -7 58 -66 118 -166 51 -85 96 -156 100 -158 4 -3 48 65
99 151 51 85 102 161 114 169 60 43 135 -9 126 -88 -1 -10 -55 -106 -119 -214
l-118 -196 115 -191 c63 -105 118 -202 122 -216 18 -65 -42 -121 -106 -100
-30 10 -46 31 -132 176 l-99 164 -88 -147 c-108 -181 -118 -193 -164 -193 -56
1 -99 47 -87 95 3 13 58 110 122 216 63 106 113 197 111 203 -3 6 -57 98 -121
205 -64 107 -116 205 -116 218 0 30 51 83 79 83 11 0 31 -5 44 -11z m1219 -27
c149 -73 227 -237 183 -388 -31 -108 -83 -171 -185 -225 -39 -20 -62 -24 -177
-27 l-133 -4 0 -127 c0 -135 -10 -185 -40 -201 -32 -17 -82 -11 -107 12 l-23
21 0 459 c0 306 4 466 11 479 18 34 48 39 229 36 l175 -2 67 -33z"/>
<path d="M2820 1880 l0 -170 106 0 c89 0 112 3 143 21 122 68 114 242 -13 300
-31 14 -65 19 -138 19 l-98 0 0 -170z"/>
<path d="M530 1129 c-190 -171 -346 -315 -348 -319 -2 -4 85 -42 192 -84 157
-62 200 -83 224 -110 23 -26 39 -72 81 -222 28 -104 55 -196 59 -205 5 -13 64
35 264 215 l256 231 -44 50 c-167 191 -284 439 -317 673 -6 45 -14 82 -17 82
-3 0 -160 -140 -350 -311z"/>
<path d="M4223 1358 c-33 -234 -150 -482 -317 -673 l-44 -50 256 -231 c202
-182 259 -228 264 -215 4 9 31 101 59 206 44 158 58 195 83 222 24 26 73 50
229 111 l197 78 -350 314 c-193 173 -354 316 -358 318 -4 1 -13 -35 -19 -80z"/>
</g>
</svg>
